<?xml version="1.0" encoding="UTF-8"?>
<svg version="1.1" xmlns="http://www.w3.org/2000/svg" width="2360" height="959">
<path d="M0 0 C1.21236328 -0.05607422 1.21236328 -0.05607422 2.44921875 -0.11328125 C10.58520988 1.09657282 17.47535097 7.04261874 24 11.6875 C31.38050615 16.88168976 38.78628709 22.01904527 46.3125 27 C55.03583982 32.78112344 63.71358199 38.62671779 72.375 44.5 C73.0362085 44.9483017 73.69741699 45.39660339 74.37866211 45.85848999 C78.38296036 48.57372083 82.38642236 51.29018212 86.38946533 54.00726318 C88.82485081 55.66025199 91.26046144 57.31290886 93.69607544 58.96556091 C97.71714322 61.69400389 101.73810664 64.42260051 105.75878906 67.15161133 C118.29659075 75.66118013 130.84291052 84.15816731 143.38916016 92.65527344 C149.2219322 96.60564675 155.05421635 100.55674028 160.88653564 104.50778198 C164.0714726 106.66537364 167.25644093 108.82291897 170.44140625 110.98046875 C171.7280275 111.85205055 173.01464859 112.72363259 174.30126953 113.59521484 C174.95250793 114.03637634 175.60374634 114.47753784 176.27471924 114.93206787 C192.79360962 126.12228394 192.79360962 126.12228394 209.3125 137.3125 C209.3125 117.75520361 195.03874527 92.62250481 185.12402344 76.09423828 C184.8562207 75.50626465 184.58841797 74.91829102 184.3125 74.3125 C184.6425 73.6525 184.9725 72.9925 185.3125 72.3125 C224.05745392 129.63224066 235.46204833 205.28454342 222.67016602 272.50292969 C213.08978528 319.75433746 192.45211023 363.49270028 161.3125 400.3125 C160.3878579 401.42434368 159.46338704 402.5363298 158.5390625 403.6484375 C149.30218866 414.67838764 139.40764648 425.12579355 128.3125 434.3125 C127.78382324 434.76028809 127.25514648 435.20807617 126.71044922 435.66943359 C116.4172605 444.37819952 105.71711513 452.1246112 94.3125 459.3125 C93.29881348 459.95566162 93.29881348 459.95566162 92.26464844 460.61181641 C28.82229497 500.48497774 -47.92165818 510.94278336 -120.55859375 494.8125 C-162.42498739 485.11336575 -201.72493521 465.97015202 -234.6875 438.3125 C-235.1928125 437.89597168 -235.698125 437.47944336 -236.21875 437.05029297 C-249.63610278 425.97860358 -261.94956679 414.02526859 -272.6875 400.3125 C-274.28884111 398.37266403 -275.89301041 396.43515927 -277.5 394.5 C-280.46272508 390.88464667 -283.22049336 387.28116286 -285.6875 383.3125 C-285.3575 382.6525 -285.0275 381.9925 -284.6875 381.3125 C-283.99785156 382.13492187 -283.30820312 382.95734375 -282.59765625 383.8046875 C-266.01891804 403.52854047 -248.70648564 421.81906103 -227.85546875 437.06640625 C-226.81827698 437.82588562 -226.81827698 437.82588562 -225.76013184 438.60070801 C-224.06961909 439.83847004 -222.37861031 441.07555454 -220.6875 442.3125 C-220.68863916 441.51146929 -220.68977832 440.71043859 -220.690952 439.88513422 C-220.75807083 392.42068705 -220.8095519 344.95624504 -220.84069599 297.49175993 C-220.84444816 291.7939857 -220.84833112 286.09621158 -220.85229492 280.3984375 C-220.85308185 279.26410237 -220.85386878 278.12976724 -220.85467956 276.96105832 C-220.86773724 258.58857971 -220.89139308 240.21612924 -220.91895839 221.84366733 C-220.9470025 202.99502361 -220.96367416 184.14639464 -220.96976548 165.29773092 C-220.97388398 153.66497402 -220.98689694 142.03229663 -221.0112494 130.39956421 C-221.0270943 122.42503073 -221.03190317 114.45053843 -221.02800413 106.47599036 C-221.02608065 101.87353912 -221.02905126 97.27122693 -221.04511642 92.66880035 C-221.0597202 88.45427804 -221.06044926 84.23998822 -221.05019668 80.02545518 C-221.04892961 78.50176508 -221.05273115 76.97806045 -221.06214955 75.45439893 C-221.1614882 58.38998726 -221.1614882 58.38998726 -215.93359375 52.25390625 C-215.03833984 51.57134766 -215.03833984 51.57134766 -214.125 50.875 C-213.52558594 50.40191406 -212.92617187 49.92882812 -212.30859375 49.44140625 C-208.44903821 46.75366758 -204.9201767 46.61043613 -200.28515625 46.66015625 C-192.77031718 48.02278179 -186.80297129 52.95890019 -180.6875 57.3125 C-179.21651466 58.34297461 -177.74515692 59.37291782 -176.2734375 60.40234375 C-174.13580902 61.90254899 -172.00309621 63.4074852 -169.88598633 64.93652344 C-164.29966163 68.96427671 -158.52311968 72.6572513 -152.6875 76.3125 C-152.70844727 75.50619141 -152.72939453 74.69988281 -152.75097656 73.86914062 C-152.83459173 70.18372273 -152.88630549 66.49850506 -152.9375 62.8125 C-152.97101563 61.5440625 -153.00453125 60.275625 -153.0390625 58.96875 C-153.11609982 51.57316691 -152.80371552 46.54305574 -148.6875 40.3125 C-143.67948268 35.54877621 -139.02014583 34.62109508 -132.25244141 34.74438477 C-128.04859394 35.41431718 -125.77331526 36.8056611 -122.26171875 39.19140625 C-121.66499359 39.59093002 -121.06826843 39.9904538 -120.45346069 40.40208435 C-119.17985316 41.25612911 -117.90996893 42.11574864 -116.64358521 42.98046875 C-114.68787768 44.31224281 -112.7196984 45.62302456 -110.74584961 46.92773438 C-106.75913551 49.56354208 -102.78512477 52.21802249 -98.8125 54.875 C-97.43106311 55.79763614 -96.049553 56.72016266 -94.66796875 57.64257812 C-91.34030522 59.86462984 -88.01361937 62.08813762 -84.6875 64.3125 C-84.71106567 63.04188721 -84.71106567 63.04188721 -84.73510742 61.74560547 C-84.7864557 58.58107796 -84.82395672 55.41676392 -84.85229492 52.25195312 C-84.86731428 50.88632184 -84.88773608 49.52073824 -84.91381836 48.15527344 C-84.95050137 46.18446095 -84.96568551 44.21328592 -84.98046875 42.2421875 C-85.00403442 40.46690674 -85.00403442 40.46690674 -85.02807617 38.65576172 C-84.50365942 33.50783124 -82.61623598 30.30919227 -79.125 26.5625 C-74.56590546 23.08675466 -69.08843949 21.90062151 -63.4296875 22.5859375 C-57.88547041 24.11606193 -53.70533942 27.27400908 -49.1875 30.7265625 C-43.71855462 34.85161459 -37.92544911 38.52667961 -32.21191406 42.30004883 C-31.34276367 42.8752124 -30.47361328 43.45037598 -29.578125 44.04296875 C-28.80500977 44.55239014 -28.03189453 45.06181152 -27.23535156 45.58666992 C-24.01004791 47.77138356 -20.85090274 50.03907628 -17.6875 52.3125 C-17.67348145 50.49661377 -17.67348145 50.49661377 -17.65917969 48.64404297 C-17.61920052 44.1373259 -17.5534196 39.63128578 -17.47998047 35.125 C-17.45181679 33.17749755 -17.4305794 31.22988178 -17.41650391 29.28222656 C-17.39501054 26.47662532 -17.34832802 23.67238 -17.296875 20.8671875 C-17.29564636 20.00133026 -17.29441772 19.13547302 -17.29315186 18.24337769 C-17.16210848 12.79129047 -16.29700047 9.64539553 -12.6875 5.3125 C-8.58250126 1.60798894 -5.50510121 0.16420239 0 0 Z " fill="#0093DB" transform="translate(373.6875,210.6875)"/>
<path d="M0 0 C0.72154266 0.4934491 1.44308533 0.98689819 2.18649292 1.49530029 C4.46597004 3.0598282 6.72885616 4.64660717 8.9921875 6.234375 C10.51591392 7.28402437 12.04064707 8.33221388 13.56640625 9.37890625 C21.28041682 14.69197374 21.28041682 14.69197374 23.79326034 16.55743164 C25.8058649 18.02384709 25.8058649 18.02384709 27.96096635 18.97420031 C30.56892861 20.38578703 32.07179809 21.60255494 33.8671875 23.984375 C35.09846732 29.58020098 34.91987068 35.12561282 34.840271 40.83140564 C34.84502615 42.58877268 34.85330528 44.34613312 34.86480641 46.10346895 C34.8862809 50.93397152 34.85794017 55.76310244 34.82161927 60.59346902 C34.7912 65.80215853 34.80697967 71.01072789 34.81733704 76.21946716 C34.82912169 85.24589649 34.81208091 94.27190221 34.77596283 103.29826164 C34.72410437 116.3564583 34.72010633 129.41433192 34.72858468 142.47261292 C34.74141671 163.66825525 34.72149475 184.86372841 34.67822266 206.05932617 C34.67564002 207.32809888 34.67305738 208.59687159 34.67039648 209.90409196 C34.66780878 211.17445658 34.66522109 212.4448212 34.66255498 213.75368172 C34.62594431 231.76213301 34.59708485 249.77057434 34.57763672 267.77905273 C34.57626031 269.04597869 34.57488391 270.31290464 34.57346579 271.61822229 C34.55118455 292.73272846 34.54503982 313.84722171 34.54716325 334.96173865 C34.54742798 347.98915824 34.53111581 361.0163722 34.49344501 374.04373849 C34.46828944 382.96758952 34.45656971 391.89138934 34.45545736 400.8152756 C34.45422666 405.96653366 34.44620299 411.11756111 34.4206562 416.26876068 C34.39733633 420.98324979 34.39229909 425.69738974 34.40182236 430.41192359 C34.40196436 432.11846633 34.3952824 433.82502593 34.38113019 435.53150999 C34.36284283 437.85037421 34.36923812 440.16792671 34.38172531 442.48680019 C34.37890761 443.7749766 34.37608991 445.06315301 34.37318683 446.39036506 C35.12846974 451.88528532 37.80874929 455.39671768 40.8671875 459.984375 C9.94007853 469.71520272 -29.81602816 467.14801919 -61.10351562 460.4140625 C-63.32244077 459.94422272 -65.54680592 459.50991222 -67.7734375 459.078125 C-75.59936798 457.53819657 -83.38856167 455.82525469 -91.0703125 453.671875 C-92.33746094 453.32511719 -93.60460937 452.97835938 -94.91015625 452.62109375 C-98.91867899 450.58525008 -100.46241603 448.02394742 -102.1328125 443.984375 C-102.63420916 440.39907843 -102.63420916 440.39907843 -102.63617706 436.50800419 C-102.64199083 435.78476523 -102.64780459 435.06152628 -102.65379453 434.31637099 C-102.66836882 431.89783269 -102.65452207 429.48031339 -102.64074707 427.06178284 C-102.64535702 425.30839757 -102.65171058 423.55501616 -102.65965605 421.80164284 C-102.67635968 416.98712907 -102.66809825 412.17293232 -102.65571117 407.35841739 C-102.6466672 402.16472463 -102.66062722 396.97108668 -102.67163086 391.77740479 C-102.68942799 381.60414771 -102.68557065 371.4310086 -102.6739803 361.25774688 C-102.66495046 352.98995126 -102.66372003 344.72218871 -102.66807556 336.45438957 C-102.66868849 335.27811926 -102.66930143 334.10184894 -102.66993293 332.88993407 C-102.67121182 330.50042565 -102.67250867 328.11091724 -102.6738233 325.72140884 C-102.68523272 303.30856961 -102.67210994 280.8957958 -102.65062183 258.48296731 C-102.63275287 239.24959843 -102.63585262 220.01632612 -102.65429688 200.78295898 C-102.67570117 178.452422 -102.6841316 156.12194237 -102.67184782 133.79139656 C-102.67057361 131.41032311 -102.66931613 129.02924966 -102.66807556 126.64817619 C-102.66745846 125.47661994 -102.66684136 124.30506369 -102.66620556 123.09800573 C-102.66275117 114.8401651 -102.66858298 106.58236083 -102.67799377 98.32452583 C-102.68921032 88.26084831 -102.68618097 78.19729559 -102.6648708 68.13363237 C-102.65435547 62.99847208 -102.65024686 57.8635199 -102.66346741 52.72836113 C-102.67538711 48.02738503 -102.66883556 43.32680994 -102.6475572 38.62587022 C-102.64308934 36.92541404 -102.64536154 35.22492398 -102.65506035 33.52448959 C-102.73858433 17.66393491 -102.73858433 17.66393491 -98.1328125 10.984375 C-93.12479518 6.22065121 -88.46545833 5.29297008 -81.69775391 5.41625977 C-77.49390644 6.08619218 -75.21862776 7.4775361 -71.70703125 9.86328125 C-71.11030609 10.26280502 -70.51358093 10.6623288 -69.89877319 11.07395935 C-68.62516566 11.92800411 -67.35528143 12.78762364 -66.08889771 13.65234375 C-64.13319018 14.98411781 -62.1650109 16.29489956 -60.19116211 17.59960938 C-56.20444801 20.23541708 -52.23043727 22.88989749 -48.2578125 25.546875 C-46.87637561 26.46951114 -45.4948655 27.39203766 -44.11328125 28.31445312 C-40.78561772 30.53650484 -37.45893187 32.76001262 -34.1328125 34.984375 C-34.14852295 34.1372998 -34.1642334 33.29022461 -34.18041992 32.41748047 C-34.2317682 29.25295296 -34.26926922 26.08863892 -34.29760742 22.92382812 C-34.31262678 21.55819684 -34.33304858 20.19261324 -34.35913086 18.82714844 C-34.39581387 16.85633595 -34.41099801 14.88516092 -34.42578125 12.9140625 C-34.4414917 11.73054199 -34.45720215 10.54702148 -34.47338867 9.32763672 C-33.93894761 4.08130275 -32.07632579 0.92788829 -28.3828125 -2.765625 C-18.49879359 -9.60840732 -9.09839281 -6.46507772 0 0 Z " fill="#00C6F1" transform="translate(323.1328125,240.015625)"/>
<path d="M0 0 C5.79144801 2.47290716 10.89574324 6.36628312 16 10 C17.47098534 11.03047461 18.94234308 12.06041782 20.4140625 13.08984375 C22.55169098 14.59004899 24.68440379 16.0949852 26.80151367 17.62402344 C27.45095947 18.09227539 28.10040527 18.56052734 28.76953125 19.04296875 C29.3909862 19.50460672 30.01244116 19.9662447 30.65272808 20.4418717 C32.99559816 22.0862186 32.99559816 22.0862186 35.77225208 23.26198524 C39.0547407 24.87679657 41.42543928 26.38673929 44 29 C45.64606446 34.25868797 45.45207611 39.42794422 45.34057617 44.87306213 C45.34735825 46.51239928 45.35898016 48.15172233 45.37501717 49.79099506 C45.40510908 54.29103865 45.36677469 58.78829579 45.31728768 63.28807199 C45.27593582 68.14228288 45.29816751 72.99624871 45.31278992 77.85055542 C45.32955209 86.26054091 45.30642356 94.66965666 45.25653076 103.0795002 C45.18467862 115.24510632 45.17637954 127.41011235 45.18413401 139.57589804 C45.19527421 159.32249505 45.15954998 179.06871007 45.09228516 198.81518555 C45.02713616 217.981848 44.97648646 237.14842665 44.95068359 256.31518555 C44.94908442 257.49579131 44.94748525 258.67639707 44.94583762 259.89277876 C44.92884716 272.77889083 44.91649327 285.66500304 44.90830994 298.55112362 C44.90757569 299.68331887 44.90684145 300.81551413 44.90608495 301.98201833 C44.90172171 308.77068634 44.90172171 308.77068634 44.89788759 315.55935466 C44.89072627 328.81528383 44.86924645 342.0710149 44.82223445 355.32686567 C44.7929409 363.63956547 44.7729604 371.95224947 44.76031083 380.26499123 C44.75096386 385.9862459 44.72925573 391.70726622 44.69786364 397.42844007 C44.68199359 400.89704082 44.67858168 404.36556743 44.67889559 407.83420097 C44.67652819 409.42427971 44.66900659 411.0143607 44.65586221 412.60438687 C44.63869197 414.76355611 44.64003481 416.92195857 44.64596558 419.08117008 C44.63986928 420.88104849 44.63986928 420.88104849 44.63364983 422.71728808 C45.04713088 426.42232023 46.06354813 428.83088939 48 432 C50.20815302 433.37004241 50.20815302 433.37004241 52.83984375 433.9765625 C53.81058838 434.25282471 54.78133301 434.52908691 55.78149414 434.8137207 C56.82297607 435.08144287 57.86445801 435.34916504 58.9375 435.625 C60.54709595 436.06428833 60.54709595 436.06428833 62.18920898 436.51245117 C112.30355539 449.89578575 165.29018286 450.04275572 215 435 C216.04124023 434.68514648 217.08248047 434.37029297 218.15527344 434.04589844 C251.95495454 423.64029665 283.22269936 408.00060537 311 386 C311.89460938 385.29746094 312.78921875 384.59492187 313.7109375 383.87109375 C328.51594244 372.01436343 342.19070186 358.84323165 354 344 C354.93402785 342.87709764 355.87033287 341.75608654 356.80859375 340.63671875 C396.95133688 292.32554761 417.20301775 228.75666595 417.25 166.4375 C417.25067474 165.6266394 417.25134949 164.81577881 417.25204468 163.98034668 C417.23259802 149.15654477 416.275295 134.66404413 414 120 C413.85498047 119.00806641 413.70996094 118.01613281 413.56054688 116.99414062 C408.97736536 86.73720638 397.52994072 55.05340291 381.81811523 28.79931641 C381.54813721 28.20554199 381.27815918 27.61176758 381 27 C381.33 26.34 381.66 25.68 382 25 C420.74495392 82.31974066 432.14954833 157.97204342 419.35766602 225.19042969 C409.77728528 272.44183746 389.13961023 316.18020028 358 353 C357.0753579 354.11184368 356.15088704 355.2238298 355.2265625 356.3359375 C345.98968866 367.36588764 336.09514648 377.81329355 325 387 C324.47132324 387.44778809 323.94264648 387.89557617 323.39794922 388.35693359 C313.1047605 397.06569952 302.40461513 404.8121112 291 412 C289.98631348 412.64316162 289.98631348 412.64316162 288.95214844 413.29931641 C225.50979497 453.17247774 148.76584182 463.63028336 76.12890625 447.5 C34.26251261 437.80086575 -5.03743521 418.65765202 -38 391 C-38.5053125 390.58347168 -39.010625 390.16694336 -39.53125 389.73779297 C-52.94860278 378.66610358 -65.26206679 366.71276859 -76 353 C-77.60134111 351.06016403 -79.20551041 349.12265927 -80.8125 347.1875 C-83.77522508 343.57214667 -86.53299336 339.96866286 -89 336 C-88.67 335.34 -88.34 334.68 -88 334 C-87.31035156 334.82242187 -86.62070313 335.64484375 -85.91015625 336.4921875 C-69.33141804 356.21604047 -52.01898564 374.50656103 -31.16796875 389.75390625 C-30.13077698 390.51338562 -30.13077698 390.51338562 -29.07263184 391.28820801 C-27.38211909 392.52597004 -25.69111031 393.76305454 -24 395 C-24.00113916 394.19896929 -24.00227832 393.39793859 -24.003452 392.57263422 C-24.07057083 345.10818705 -24.1220519 297.64374504 -24.15319599 250.17925993 C-24.15694816 244.4814857 -24.16083112 238.78371158 -24.16479492 233.0859375 C-24.16558185 231.95160237 -24.16636878 230.81726724 -24.16717956 229.64855832 C-24.18023724 211.27607971 -24.20389308 192.90362924 -24.23145839 174.53116733 C-24.2595025 155.68252361 -24.27617416 136.83389464 -24.28226548 117.98523092 C-24.28638398 106.35247402 -24.29939694 94.71979663 -24.3237494 83.08706421 C-24.3395943 75.11253073 -24.34440317 67.13803843 -24.34050413 59.16349036 C-24.33858065 54.56103912 -24.34155126 49.95872693 -24.35761642 45.35630035 C-24.3722202 41.14177804 -24.37294926 36.92748822 -24.36269668 32.71295518 C-24.36142961 31.18926508 -24.36523115 29.66556045 -24.37464955 28.14189893 C-24.4739882 11.07748726 -24.4739882 11.07748726 -19.24609375 4.94140625 C-18.35083984 4.25884766 -18.35083984 4.25884766 -17.4375 3.5625 C-16.53837891 2.85287109 -16.53837891 2.85287109 -15.62109375 2.12890625 C-10.79939384 -1.22885586 -5.63277276 -1.02136053 0 0 Z " fill="#0061C5" transform="translate(177,258)"/>
<path d="M0 0 C3.16501629 1.74807382 3.16501629 1.74807382 6.43919563 4.03824234 C10.78355751 7.0046956 15.08926672 9.63281383 19.8456184 11.88623245 C40.38958248 21.65573478 40.38958248 21.65573478 44.96848041 30.97007048 C48.93582672 42.2401543 47.8740382 55.0533208 47.50787544 66.79663873 C47.38127449 71.93215613 47.43047724 77.06654912 47.45744324 82.20314026 C47.48065689 91.08394756 47.3953815 99.95824952 47.23483658 108.83756256 C47.00310753 121.68279984 46.94283186 134.52449357 46.92372261 147.37160024 C46.8884768 168.22931197 46.7225964 189.0837982 46.47070312 209.93994141 C46.22673257 230.16798799 46.03457269 250.39530117 45.91894531 270.62451172 C45.90821083 272.49613288 45.90821083 272.49613288 45.89725949 274.40556458 C45.82705268 286.81423923 45.76462866 299.2229521 45.70279453 311.63167079 C45.67865025 316.45723082 45.65409015 321.28278861 45.62924208 326.10834506 C45.61698619 328.48937345 45.60485403 330.87040249 45.59284757 333.25143215 C45.51547296 348.39124644 45.39796749 363.53005351 45.23525167 378.66919088 C45.15325255 386.29928901 45.08380282 393.9294853 45.0175602 401.55973503 C44.96398027 407.59190854 44.89314758 413.62354262 44.80877895 419.65535976 C44.76175628 423.31550927 44.73145427 426.97565385 44.70595501 430.63601062 C44.69082562 432.31126427 44.66870438 433.98647245 44.63887586 435.66152886 C44.3526317 447.39848734 44.3526317 447.39848734 49 458 C42.37098905 458.11555093 35.99980071 457.83447229 29.4375 456.875 C28.55126953 456.74665771 27.66503906 456.61831543 26.75195312 456.48608398 C16.26040548 454.86563791 5.9817065 452.36658059 -4.28662109 449.69921875 C-6.62979614 449.09539894 -8.97758093 448.52633824 -11.33203125 447.96875 C-12.48058594 447.6696875 -13.62914062 447.370625 -14.8125 447.0625 C-15.74707031 446.82660156 -16.68164062 446.59070313 -17.64453125 446.34765625 C-21.04120949 444.40428313 -22.50405042 441.50466352 -24 438 C-24.50139666 434.41470343 -24.50139666 434.41470343 -24.50336456 430.52362919 C-24.50917833 429.80039023 -24.51499209 429.07715128 -24.52098203 428.33199599 C-24.53555632 425.91345769 -24.52170957 423.49593839 -24.50793457 421.07740784 C-24.51254452 419.32402257 -24.51889808 417.57064116 -24.52684355 415.81726784 C-24.54354718 411.00275407 -24.53528575 406.18855732 -24.52289867 401.37404239 C-24.5138547 396.18034963 -24.52781472 390.98671168 -24.53881836 385.79302979 C-24.55661549 375.61977271 -24.55275815 365.4466336 -24.5411678 355.27337188 C-24.53213796 347.00557626 -24.53090753 338.73781371 -24.53526306 330.47001457 C-24.53587599 329.29374426 -24.53648893 328.11747394 -24.53712043 326.90555907 C-24.53839932 324.51605065 -24.53969617 322.12654224 -24.5410108 319.73703384 C-24.55242022 297.32419461 -24.53929744 274.9114208 -24.51780933 252.49859231 C-24.49994037 233.26522343 -24.50304012 214.03195112 -24.52148438 194.79858398 C-24.54288867 172.468047 -24.5513191 150.13756737 -24.53903532 127.80702156 C-24.53776111 125.42594811 -24.53650363 123.04487466 -24.53526306 120.66380119 C-24.53464596 119.49224494 -24.53402886 118.32068869 -24.53339306 117.11363073 C-24.52993867 108.8557901 -24.53577048 100.59798583 -24.54518127 92.34015083 C-24.55639782 82.27647331 -24.55336847 72.21292059 -24.5320583 62.14925737 C-24.52154297 57.01409708 -24.51743436 51.8791449 -24.53065491 46.74398613 C-24.54257461 42.04301003 -24.53602306 37.34243494 -24.5147447 32.64149522 C-24.51027684 30.94103904 -24.51254904 29.24054898 -24.52224785 27.54011459 C-24.60577183 11.67955991 -24.60577183 11.67955991 -20 5 C-14.11827682 -0.59480985 -7.82766233 -1.26899761 0 0 Z " fill="#00E0FD" transform="translate(245,246)"/>
<path d="M0 0 C19 0 19 0 23.1015625 3.828125 C24.43041992 6.40258789 24.43041992 6.40258789 25.625 9.25 C26.62859059 11.25667846 27.63802063 13.26044388 28.65234375 15.26171875 C29.17425293 16.34243652 29.69616211 17.4231543 30.23388672 18.53662109 C33.16765893 24.28979951 36.61418965 29.72105763 40.02728271 35.19885254 C41.88114026 38.17668863 43.71631 41.16557808 45.54296875 44.16015625 C46.16196045 45.16699463 46.78095215 46.17383301 47.41870117 47.21118164 C48.86507048 49.76203491 49.99078349 52.25144865 51 55 C51.66 55 52.32 55 53 55 C53.22300781 54.36578125 53.44601562 53.7315625 53.67578125 53.078125 C55.52559373 48.7782659 57.85110477 44.80184806 60.1875 40.75 C60.70562256 39.84773682 61.22374512 38.94547363 61.75756836 38.01586914 C66.1232258 30.4485151 70.57713818 22.93440726 75.0625 15.4375 C76.02675903 13.82343262 76.02675903 13.82343262 77.01049805 12.17675781 C77.61676025 11.16838867 78.22302246 10.16001953 78.84765625 9.12109375 C79.38398682 8.2283374 79.92031738 7.33558105 80.47290039 6.41577148 C80.97684326 5.61856689 81.48078613 4.8213623 82 4 C82.70914551 2.86365112 82.70914551 2.86365112 83.43261719 1.7043457 C85 0 85 0 86.99291992 -0.45410156 C87.73131104 -0.4331543 88.46970215 -0.41220703 89.23046875 -0.390625 C90.43413086 -0.37128906 90.43413086 -0.37128906 91.66210938 -0.3515625 C92.91217773 -0.30128906 92.91217773 -0.30128906 94.1875 -0.25 C95.03248047 -0.23195313 95.87746094 -0.21390625 96.74804688 -0.1953125 C98.83251573 -0.14820586 100.91640144 -0.07646233 103 0 C104.21934542 30.66199712 104.10410211 61.31870507 104 92 C97.07 92 90.14 92 83 92 C82.67 75.17 82.34 58.34 82 41 C77.0934355 49.29940812 77.0934355 49.29940812 72.18945312 57.6003418 C58.83132307 80.16867693 58.83132307 80.16867693 57 82 C53.22199009 82.63817463 49.76753711 82.73197109 46 82 C43.16492382 79.74038621 41.72445368 76.93310645 40.0625 73.75 C39.64033203 73.01136719 39.21816406 72.27273438 38.78320312 71.51171875 C37.16825076 68.68612642 35.58625025 65.84180458 34 63 C30.04 56.4 26.08 49.8 22 43 C21.67 59.17 21.34 75.34 21 92 C14.07 92 7.14 92 0 92 C0 61.64 0 31.28 0 0 Z " fill="#424242" transform="translate(1053,367)"/>
<path d="M0 0 C12.49875 -0.0928125 12.49875 -0.0928125 25.25 -0.1875 C27.85551758 -0.21481201 30.46103516 -0.24212402 33.14550781 -0.27026367 C35.24804219 -0.27903873 37.35058172 -0.28668024 39.453125 -0.29296875 C41.04519775 -0.3159906 41.04519775 -0.3159906 42.66943359 -0.33947754 C56.69035469 -0.34429904 70.45241995 3.42833376 80.875 13.1875 C90.87346487 23.98439037 93.71503573 35.58880027 93.3125 49.92578125 C92.62712766 62.04830449 87.45249915 72.00795054 78.75 80.25 C62.89304135 93.543417 44.23711686 92.39736479 24.6875 92.1875 C16.540625 92.125625 8.39375 92.06375 0 92 C0 61.64 0 31.28 0 0 Z M22 18 C22 36.48 22 54.96 22 74 C44.49181123 75.03769379 44.49181123 75.03769379 63 66 C68.61152634 60.24080191 70.56649044 53.75471067 71.05078125 45.8984375 C70.90029523 37.30915825 68.22766781 31.03600794 62.2578125 24.87890625 C50.67371276 15.23885093 36.62827765 18 22 18 Z " fill="#424242" transform="translate(1314,367)"/>
<path d="M0 0 C23.1 0 46.2 0 70 0 C70 5.94 70 11.88 70 18 C54.16 18 38.32 18 22 18 C22 24.27 22 30.54 22 37 C36.19 37 50.38 37 65 37 C65 42.61 65 48.22 65 54 C50.81 54 36.62 54 22 54 C22 60.6 22 67.2 22 74 C38.5 74 55 74 72 74 C72 79.94 72 85.88 72 92 C48.24 92 24.48 92 0 92 C0 61.64 0 31.28 0 0 Z " fill="#424242" transform="translate(965,367)"/>
<path d="M0 0 C23.1 0 46.2 0 70 0 C70 5.94 70 11.88 70 18 C54.16 18 38.32 18 22 18 C22 24.27 22 30.54 22 37 C35.86 37 49.72 37 64 37 C64 42.61 64 48.22 64 54 C50.14 54 36.28 54 22 54 C22 60.6 22 67.2 22 74 C38.17 74 54.34 74 71 74 C71 79.94 71 85.88 71 92 C47.57 92 24.14 92 0 92 C0 61.64 0 31.28 0 0 Z " fill="#424242" transform="translate(1422,367)"/>
<path d="M0 0 C7.26 0 14.52 0 22 0 C27.52076955 10.8112477 32.61964234 21.71160386 37.44195557 32.84957886 C39.3777942 37.32043924 41.32681261 41.7855336 43.27734375 46.25 C43.8660022 47.59782814 43.8660022 47.59782814 44.46655273 48.97288513 C49.04547365 59.42948295 53.79365972 69.80874849 58.58032227 80.17163086 C58.88078964 80.82570923 59.18125702 81.4797876 59.49082947 82.15368652 C60.2939219 83.90187078 61.10114782 85.64815452 61.90869141 87.39428711 C63 90 63 90 63 92 C55.08 92 47.16 92 39 92 C37.2675 87.8853125 37.2675 87.8853125 35.5 83.6875 C35.13455078 82.82729248 34.76910156 81.96708496 34.39257812 81.08081055 C33.9662207 80.05661011 33.9662207 80.05661011 33.53125 79.01171875 C33.23798828 78.31522217 32.94472656 77.61872559 32.64257812 76.90112305 C32 75 32 75 32 72 C18.14 72 4.28 72 -10 72 C-10.99 75.3 -11.98 78.6 -13 82 C-14.50992944 85.44519112 -16.23956319 88.66944387 -18 92 C-25.26 92 -32.52 92 -40 92 C-39.23439319 88.17196597 -38.53786398 85.63105507 -36.98046875 82.1875 C-36.54500732 81.21651367 -36.1095459 80.24552734 -35.66088867 79.24511719 C-34.93156128 77.63878418 -34.93156128 77.63878418 -34.1875 76 C-33.39300232 74.23245181 -32.5985422 72.46488658 -31.80488586 70.69696045 C-31.2144405 69.38226522 -30.6233403 68.06786394 -30.03166199 66.75372314 C-27.33300564 60.75674743 -24.66423062 54.7467119 -22 48.734375 C-21.56375809 47.7503772 -21.12751617 46.76637939 -20.67805481 45.75256348 C-18.9157136 41.77734134 -17.15342562 37.80209648 -15.39266968 33.82617188 C-10.37316009 22.49577864 -5.28398414 11.20974774 0 0 Z M10 24 C8.14633969 28.39561715 6.29498664 32.79219589 4.44580078 37.18969727 C3.81590688 38.68671149 3.18537422 40.18345711 2.55419922 41.67993164 C1.64904908 43.82628844 0.74617228 45.97358888 -0.15625 48.12109375 C-0.44060913 48.79401962 -0.72496826 49.4669455 -1.01794434 50.16026306 C-2.40524422 52.98611589 -2.40524422 52.98611589 -3 56 C6.24 56 15.48 56 25 56 C23.411875 52.019375 21.82375 48.03875 20.1875 43.9375 C19.6927417 42.69605225 19.1979834 41.45460449 18.68823242 40.17553711 C16.52247289 34.75435249 14.33710762 29.34972475 12 24 C11.34 24 10.68 24 10 24 Z " fill="#424242" transform="translate(1206,367)"/>
<path d="M0 0 C-1.86763181 5.72210596 -3.85289032 11.37661751 -6 17 C-10.8776788 16.13923315 -15.39320873 14.5574582 -20.0625 12.9375 C-28.75213479 10.1642123 -37.68658696 9.72904996 -46 14 C-48.33043558 17.49565336 -48.58763244 18.8865729 -48 23 C-44.44469358 26.46883153 -41.21721557 27.79002332 -36.44921875 29 C-34.56493164 29.495 -34.56493164 29.495 -32.64257812 30 C-31.3245038 30.33445871 -30.00614156 30.66778473 -28.6875 31 C-7.7135425 36.32738 -7.7135425 36.32738 -1 44 C-0.443125 44.598125 0.11375 45.19625 0.6875 45.8125 C4.65311858 52.4218643 4.58156388 59.65777299 3 67 C0.40281927 74.32568016 -4.35961183 79.1146665 -11 83 C-26.76117896 90.34479869 -45.58443909 89.10370474 -61.75 83.625 C-66.18757211 81.99508607 -69.43093115 80.10641178 -73 77 C-72.37954537 72.76677156 -70.89476441 69.47709705 -68.9375 65.6875 C-68.11572266 64.08455078 -68.11572266 64.08455078 -67.27734375 62.44921875 C-66.64505859 61.23685547 -66.64505859 61.23685547 -66 60 C-63.4377537 60.99719856 -60.93081575 62.03305587 -58.44921875 63.21875 C-47.78192814 68.16764861 -35.39982915 70.9899402 -24 67 C-21.39659474 65.56812711 -20.37562123 64.75124247 -19.0625 62.125 C-18.97104063 59.01538142 -20.21100094 57.4975523 -22 55 C-24.03270887 53.71647416 -24.03270887 53.71647416 -26.5 53 C-27.46808594 52.67902344 -28.43617188 52.35804688 -29.43359375 52.02734375 C-32.96037696 51.01141386 -36.5000493 50.09347631 -40.05810547 49.1953125 C-52.30320147 46.10121143 -62.62647935 43.06028098 -70 32 C-72.42015183 24.73954452 -72.16893304 15.38772975 -68.9375 8.4375 C-64.00569595 0.10730997 -56.64533891 -4.21710419 -47.4375 -6.6875 C-31.09885038 -10.10721736 -14.74941177 -7.7580066 0 0 Z " fill="#424242" transform="translate(869,373)"/>
<path d="M0 0 C-1.86763181 5.72210596 -3.85289032 11.37661751 -6 17 C-9.67255893 16.36244908 -12.96292402 15.34054563 -16.4375 14 C-25.97796019 10.48442321 -34.46660513 9.82220171 -44.15234375 13.05078125 C-46.34247439 13.98654331 -46.34247439 13.98654331 -48 17 C-48.49938347 21.04701893 -48.49938347 21.04701893 -46.81640625 24.57421875 C-44.50294186 26.39016392 -42.45533208 26.9990581 -39.625 27.8125 C-38.47644531 28.1528125 -37.32789063 28.493125 -36.14453125 28.84375 C-33.04906419 29.72311785 -29.93959565 30.53801965 -26.82421875 31.34375 C-3.95453685 37.3633748 -3.95453685 37.3633748 1.5625 46.75 C4.59253438 54.22408481 4.8140645 62.06256443 2.12890625 69.6484375 C-2.35177842 78.98190521 -9.98520834 82.68661859 -19.25 86.25 C-35.76432104 89.55286421 -52.59048725 87.7944502 -68 81 C-70.92578125 78.8359375 -70.92578125 78.8359375 -73 77 C-72.37954537 72.76677156 -70.89476441 69.47709705 -68.9375 65.6875 C-68.11572266 64.08455078 -68.11572266 64.08455078 -67.27734375 62.44921875 C-66.64505859 61.23685547 -66.64505859 61.23685547 -66 60 C-63.4377537 60.99719856 -60.93081575 62.03305587 -58.44921875 63.21875 C-47.78192814 68.16764861 -35.39982915 70.9899402 -24 67 C-21.0706401 65.46208605 -20.28078682 64.62764112 -18.9375 61.625 C-18.77767146 58.86400233 -18.77767146 58.86400233 -20.625 56.4375 C-25.96798098 51.74037386 -34.1363806 50.71809416 -40.83203125 49.0390625 C-53.53537286 45.82139745 -62.847013 42.55059598 -70.16015625 31.19921875 C-72.44504382 25.21600154 -71.89878338 17.0775306 -70.125 11.00390625 C-66.38023805 2.91078586 -60.61570649 -1.87201088 -52.4375 -5.1875 C-35.04703495 -10.98432168 -16.04236159 -8.43808209 0 0 Z " fill="#424242" transform="translate(743,373)"/>
<path d="M0 0 C3.96 0 7.92 0 12 0 C14.79844051 3.14151855 16.18249563 5.32849013 18 9 C19.26017073 11.14432278 20.53183415 13.28191677 21.8125 15.4140625 C22.49840624 16.58764743 23.18203179 17.76256789 23.86352539 18.9387207 C32.05537058 33.07563064 40.44078671 47.08176016 49 61 C51.70057066 58.56968847 53.32877168 55.94322326 55.1171875 52.79296875 C55.71797119 51.74173828 56.31875488 50.69050781 56.93774414 49.60742188 C57.57703857 48.47884766 58.21633301 47.35027344 58.875 46.1875 C60.2229681 43.82551 61.57448241 41.46555439 62.92578125 39.10546875 C63.26651169 38.50934784 63.60724213 37.91322693 63.95829773 37.29904175 C67.27501347 31.50230539 70.65841344 25.74583742 74.0625 20 C74.57345215 19.13656982 75.0844043 18.27313965 75.61083984 17.38354492 C76.58627678 15.73779542 77.57388203 14.0991849 78.57470703 12.46875 C80.06479563 9.98302842 80.06479563 9.98302842 81.28076172 7.15625 C82.62109375 4.375 82.62109375 4.375 86 0 C89.96 0 93.92 0 98 0 C98 30.36 98 60.72 98 92 C93.71 92 89.42 92 85 92 C84.67 71.21 84.34 50.42 84 29 C81.48375 33.310625 78.9675 37.62125 76.375 42.0625 C74.81273463 44.714476 73.24938772 47.36574096 71.68359375 50.015625 C68.74305832 54.99545108 65.86262703 60.00199217 63.03515625 65.046875 C61.83635941 67.13565887 60.63716423 69.22421419 59.4375 71.3125 C58.90366699 72.29549072 58.36983398 73.27848145 57.81982422 74.29125977 C54.34199228 80.25148462 54.34199228 80.25148462 51.10864258 82.05493164 C48.449872 82.55330908 47.3740172 82.32782109 45 81 C41.63109078 76.96553672 39.26328404 72.43250831 36.8125 67.8125 C29.92927998 55.26133422 22.55641656 43.20651905 15 31 C14.67 51.13 14.34 71.26 14 92 C9.38 92 4.76 92 0 92 C0 61.64 0 31.28 0 0 Z " fill="#424242" transform="translate(1729,509)"/>
<path d="M0 0 C12 0 12 0 15.41015625 2.5703125 C16.33178873 3.72626679 17.21505123 4.91360935 18.0625 6.125 C18.79944092 7.07572388 18.79944092 7.07572388 19.55126953 8.0456543 C20.5686633 9.36428666 21.57036491 10.69517279 22.55615234 12.03759766 C24.32887936 14.44699565 26.18055691 16.78637955 28.04077148 19.12841797 C29.40012712 20.84421581 30.74325656 22.57191514 32.0859375 24.30078125 C35.31480203 28.4300237 38.65539379 32.46435945 42 36.5 C46.87612839 42.38596959 51.67209739 48.32331258 56.36132812 54.359375 C59.1729451 57.97494564 62.06362073 61.47634488 65 65 C65.33 43.55 65.66 22.1 66 0 C70.62 0 75.24 0 80 0 C80 30.36 80 60.72 80 92 C67 92 67 92 63.78125 89.5 C62.60791016 87.83642578 62.60791016 87.83642578 61.5 86 C60.60429403 84.7038373 59.70573884 83.40963998 58.8046875 82.1171875 C58.35061523 81.43881836 57.89654297 80.76044922 57.42871094 80.06152344 C55.02336231 76.59078458 52.31715916 73.37483502 49.625 70.125 C48.52896943 68.78204798 47.4339246 67.4382909 46.33984375 66.09375 C45.79183105 65.42214844 45.24381836 64.75054688 44.67919922 64.05859375 C34.67310404 51.79174372 24.71938304 39.49634963 15 27 C14.67 48.45 14.34 69.9 14 92 C9.38 92 4.76 92 0 92 C0 61.64 0 31.28 0 0 Z " fill="#424242" transform="translate(1174,509)"/>
<path d="M0 0 C12 0 12 0 16.0625 3.625 C17.40476636 5.39447639 18.71445912 7.18889251 20 9 C21.24965768 10.59556293 22.49983374 12.19075725 23.76025391 13.77783203 C25.1621122 15.54683175 26.54792962 17.32767148 27.93359375 19.109375 C31.27922135 23.38281859 34.72838922 27.56824147 38.1875 31.75 C43.18203625 37.79018381 48.12279667 43.86416356 53 50 C56.96 54.95 60.92 59.9 65 65 C65.33 43.55 65.66 22.1 66 0 C70.62 0 75.24 0 80 0 C80 30.36 80 60.72 80 92 C68 92 68 92 63.9375 88.375 C62.59523364 86.60552361 61.28554088 84.81110749 60 83 C58.75073408 81.40493727 57.5009582 79.81023677 56.2409668 78.22363281 C54.83236923 76.44620674 53.43950781 74.65714069 52.046875 72.8671875 C48.80756821 68.72996015 45.47349789 64.67404558 42.125 60.625 C37.4185106 54.93192691 32.72380125 49.2301694 28.0625 43.5 C27.55541504 42.87818848 27.04833008 42.25637695 26.52587891 41.61572266 C22.60948089 36.79623122 18.81525366 31.90532613 15 27 C14.67 48.45 14.34 69.9 14 92 C9.38 92 4.76 92 0 92 C0 61.64 0 31.28 0 0 Z " fill="#424242" transform="translate(1941,509)"/>
<path d="M0 0 C11.7871875 -0.0928125 11.7871875 -0.0928125 23.8125 -0.1875 C27.49950073 -0.22846802 27.49950073 -0.22846802 31.26098633 -0.27026367 C33.24299633 -0.27903817 35.2250118 -0.28667982 37.20703125 -0.29296875 C38.70961487 -0.3159906 38.70961487 -0.3159906 40.24255371 -0.33947754 C53.33191605 -0.3442541 66.80918546 3.66294718 76.4375 12.875 C85.74254163 23.04876958 89.31925755 34.44588062 89.15234375 48.1328125 C88.46293184 61.10789824 83.3236593 72.35720719 73.75 81.1875 C62.94140458 89.8911392 49.90763197 92.50672648 36.328125 92.29296875 C35.39661621 92.28994751 34.46510742 92.28692627 33.50537109 92.28381348 C30.08679835 92.26833536 26.66838583 92.22645498 23.25 92.1875 C15.5775 92.125625 7.905 92.06375 0 92 C0 61.64 0 31.28 0 0 Z M14 12 C14 34.44 14 56.88 14 80 C42.16918331 81.33064743 42.16918331 81.33064743 65.6875 69.6875 C72.50601376 61.76328131 75.55700672 53.83258014 75.24609375 43.31640625 C74.29835815 34.39565685 70.65246907 26.41165804 64.11328125 20.2109375 C49.48046862 8.53918518 32.48749049 12 14 12 Z " fill="#424242" transform="translate(1315,509)"/>
<path d="M0 0 C9.24824959 7.43416987 14.67665994 17.9542732 16.84375 29.5078125 C18.19476206 43.50541165 15.84943527 56.33888168 6.84375 67.5078125 C-1.24228707 76.65780182 -11.93001759 83.07670726 -24.15625 84.5078125 C-39.62862127 85.4381133 -53.44056403 83.39565596 -65.85546875 73.31640625 C-75.23564252 64.58120706 -80.52699406 54.01529774 -81.37109375 41.26171875 C-81.7141326 28.73394013 -79.35161098 18.81068156 -72.15625 8.5078125 C-71.434375 7.4559375 -70.7125 6.4040625 -69.96875 5.3203125 C-51.39178461 -13.25665289 -21.24719914 -14.70367767 0 0 Z M-57.90234375 13.13671875 C-65.0665909 20.83694449 -67.5464017 29.98675228 -67.43359375 40.27734375 C-66.61979562 49.75637269 -62.2104393 57.80624106 -55.30859375 64.2265625 C-47.66791212 70.42417305 -38.28339879 73.08342657 -28.49609375 72.29296875 C-18.2163806 70.77486765 -10.50490314 66.97390994 -3.84765625 58.91796875 C2.58074413 49.75786937 4.23963905 39.76485111 2.3828125 28.78125 C0.03574033 19.86237575 -5.50421053 12.63452682 -13.15625 7.5078125 C-28.23207093 -0.69867785 -45.40623825 1.47927805 -57.90234375 13.13671875 Z " fill="#424242" transform="translate(1138.15625,517.4921875)"/>
<path d="M0 0 C8.8159468 7.31222343 14.16524391 17.08731386 16.5859375 28.25 C17.39611769 44.11083517 15.70783968 56.78473971 5.3359375 69.4375 C-3.45150758 78.96354499 -15.24277124 83.74157021 -28.078125 84.453125 C-44.55378511 84.64810323 -56.87215901 81.15737718 -69.1171875 69.7109375 C-78.38551777 59.78058364 -81.77950144 47.56744339 -81.6328125 34.21875 C-80.62640936 20.5604217 -75.15459833 10.61348283 -65.4140625 1.25 C-46.91129519 -13.8886278 -19.21067679 -13.92618641 0 0 Z M-59.26171875 14.23828125 C-65.57854296 22.23131435 -68.46159515 31.07396855 -67.4140625 41.25 C-65.4217688 50.94742956 -62.08981774 59.07638601 -53.94921875 65.0625 C-44.08305765 71.23441431 -34.62645826 73.4517612 -23.18359375 71.03515625 C-14.161158 68.4773148 -6.75362093 63.87086717 -1.91015625 55.71875 C3.2036761 45.8116104 4.55883586 35.36676932 1.1484375 24.5 C-2.41062671 16.00336078 -8.90877318 9.21079595 -17.15625 5.14453125 C-32.0564549 -0.75883713 -48.25466705 2.39348355 -59.26171875 14.23828125 Z " fill="#424242" transform="translate(1496.4140625,517.75)"/>
<path d="M0 0 C1.00743432 0.90848988 2.01033289 1.82218709 3 2.75 C2.42424336 6.10250701 1.40693737 7.68818629 -1.0625 10 C-1.61035156 10.52078125 -2.15820312 11.0415625 -2.72265625 11.578125 C-3.14417969 11.96484375 -3.56570313 12.3515625 -4 12.75 C-6.69366032 11.46814849 -9.0648746 10.02670011 -11.5 8.3125 C-20.60171736 2.64285351 -30.61339609 1.83187089 -41 3.75 C-50.35835809 6.4032775 -57.55428793 10.82802255 -62.70703125 19.171875 C-66.93396138 27.60019489 -68.10697968 36.56023554 -66 45.75 C-62.68812249 55.22597695 -57.40663311 62.57904018 -48.29296875 67.08984375 C-35.48737613 72.1225312 -24.60331163 71.15141927 -12 65.75 C-11.67 55.85 -11.34 45.95 -11 35.75 C-6.38 35.75 -1.76 35.75 3 35.75 C3.24799934 40.90914926 3.42898392 46.06480788 3.54931641 51.22851562 C3.59948251 52.98271109 3.6676401 54.73649084 3.75439453 56.48925781 C4.45605444 71.03425502 4.45605444 71.03425502 0.93164062 75.18725586 C-1.67844745 76.78439745 -4.09079619 77.82104777 -7 78.75 C-8.04671875 79.22050781 -9.0934375 79.69101562 -10.171875 80.17578125 C-11.02265625 80.46839844 -11.8734375 80.76101563 -12.75 81.0625 C-14.04164063 81.52076172 -14.04164063 81.52076172 -15.359375 81.98828125 C-29.89449801 86.18110519 -46.26985496 84.47142056 -59.5546875 77.31640625 C-69.68161296 70.82935016 -77.03203249 61.88407786 -80.46875 50.28515625 C-83.73717136 34.68805727 -81.33813418 21.15515418 -73 7.75 C-66.30126609 -1.23480977 -54.8287067 -8.15738089 -43.6640625 -10.0390625 C-27.922957 -11.28542569 -12.57127368 -10.68558263 0 0 Z " fill="#424242" transform="translate(754,518.25)"/>
<path d="M0 0 C21.45 0 42.9 0 65 0 C65 3.96 65 7.92 65 12 C48.17 12 31.34 12 14 12 C14 20.91 14 29.82 14 39 C29.18 39 44.36 39 60 39 C60 42.96 60 46.92 60 51 C44.82 51 29.64 51 14 51 C14 60.57 14 70.14 14 80 C31.49 80 48.98 80 67 80 C67 83.96 67 87.92 67 92 C44.89 92 22.78 92 0 92 C0 61.64 0 31.28 0 0 Z " fill="#424242" transform="translate(1854,509)"/>
<path d="M0 0 C21.45 0 42.9 0 65 0 C65 3.96 65 7.92 65 12 C48.17 12 31.34 12 14 12 C14 20.91 14 29.82 14 39 C28.85 39 43.7 39 59 39 C59 42.96 59 46.92 59 51 C44.15 51 29.3 51 14 51 C14 60.57 14 70.14 14 80 C31.49 80 48.98 80 67 80 C67 83.96 67 87.92 67 92 C44.89 92 22.78 92 0 92 C0 61.64 0 31.28 0 0 Z " fill="#424242" transform="translate(781,509)"/>
<path d="M0 0 C26.4 0 52.8 0 80 0 C80 5.94 80 11.88 80 18 C70.43 18 60.86 18 51 18 C51 42.42 51 66.84 51 92 C43.74 92 36.48 92 29 92 C29 67.58 29 43.16 29 18 C19.43 18 9.86 18 0 18 C0 12.06 0 6.12 0 0 Z " fill="#424242" transform="translate(875,367)"/>
<path d="M0 0 C4.95 0 9.9 0 15 0 C15.93457031 2.12308594 16.86914062 4.24617187 17.83203125 6.43359375 C26.19606385 25.38882905 34.75196085 44.24454255 43.52661133 63.01342773 C56 89.72690672 56 89.72690672 56 92 C51.05 92 46.1 92 41 92 C37.2669325 84.74718314 34.15626837 77.57504409 31 70 C15.16 69.67 -0.68 69.34 -17 69 C-17.33 70.65 -17.66 72.3 -18 74 C-18.57040548 75.49343421 -19.18770564 76.96969975 -19.84765625 78.42578125 C-20.20537109 79.22177734 -20.56308594 80.01777344 -20.93164062 80.83789062 C-21.30482422 81.65451172 -21.67800781 82.47113281 -22.0625 83.3125 C-22.43955078 84.14845703 -22.81660156 84.98441406 -23.20507812 85.84570312 C-24.1320978 87.89922771 -25.06542765 89.94990166 -26 92 C-30.95 92 -35.9 92 -41 92 C-38.71788654 84.5617121 -35.65087644 77.70707769 -32.3125 70.6875 C-31.14252574 68.20527452 -29.97830764 65.72038862 -28.81640625 63.234375 C-28.51092865 62.58089584 -28.20545105 61.92741669 -27.89071655 61.25413513 C-24.06307902 53.03299078 -20.41310217 44.7328756 -16.75 36.4375 C-11.34425492 24.20410247 -5.85167409 12.02844119 0 0 Z M7 16 C2.81425897 24.11797151 -1.00342582 32.35620219 -4.57958984 40.75830078 C-5.39003006 42.66027312 -6.20837741 44.55871674 -7.02734375 46.45703125 C-7.54167969 47.65972656 -8.05601562 48.86242187 -8.5859375 50.1015625 C-9.28275635 51.73085693 -9.28275635 51.73085693 -9.99365234 53.39306641 C-11.1200421 55.84522954 -11.1200421 55.84522954 -11 58 C1.21 58 13.42 58 26 58 C22.02307799 47.58901025 22.02307799 47.58901025 17.66796875 37.38671875 C17.3864949 36.76142776 17.10502106 36.13613678 16.8150177 35.49189758 C15.9424955 33.55557982 15.06513419 31.62150518 14.1875 29.6875 C13.58365666 28.34975725 12.98013941 27.01186727 12.37695312 25.67382812 C10.92170572 22.44752083 9.46211957 19.22319982 8 16 C7.67 16 7.34 16 7 16 Z " fill="#424242" transform="translate(2146,509)"/>
<path d="M0 0 C4.62 0 9.24 0 14 0 C14.01458252 1.63356445 14.02916504 3.26712891 14.04418945 4.95019531 C14.10250139 11.0558781 14.17973143 17.16120472 14.26245117 23.26660156 C14.29554638 25.900657 14.32362538 28.53478073 14.34643555 31.16894531 C14.38026553 34.97229912 14.43259604 38.77503569 14.48828125 42.578125 C14.49467117 43.74112122 14.5010611 44.90411743 14.50764465 46.10235596 C14.67748888 55.71473563 15.40773315 66.46598074 22 74 C27.18964982 78.67068484 33.21754 79.59857203 40 80 C47.94823609 79.50516818 53.34783039 77.4434742 59.1875 71.9375 C64.37086597 63.5368724 64.4611261 53.83362218 64.51171875 44.23828125 C64.53864555 42.33057198 64.53864555 42.33057198 64.56611633 40.38432312 C64.61077383 37.04218194 64.64325018 33.70039571 64.66955566 30.35809326 C64.69961038 26.93195736 64.74605331 23.50604507 64.79101562 20.08007812 C64.875591 13.38680314 64.94256225 6.69356064 65 0 C69.62 0 74.24 0 79 0 C79.04972471 7.75552453 79.08587279 15.51095465 79.10986328 23.26660156 C79.11987285 25.90073261 79.13348457 28.53485268 79.15087891 31.16894531 C79.17534995 34.9720329 79.18653393 38.77497258 79.1953125 42.578125 C79.20563507 43.74112122 79.21595764 44.90411743 79.22659302 46.10235596 C79.2284463 59.8460779 77.53430946 73.40632282 68 84 C57.808036 93.19275184 45.11189254 93.54055371 32 93 C23.09640315 91.98060268 15.41492289 88.27236905 9 82 C0.04892151 70.63314748 -0.15799914 56.8072292 -0.09765625 42.96875 C-0.0962413 41.73709106 -0.09482635 40.50543213 -0.09336853 39.2364502 C-0.08779612 35.32427484 -0.07524867 31.41215789 -0.0625 27.5 C-0.05691482 24.8385425 -0.05291916 22.17708556 -0.04882812 19.515625 C-0.03783571 13.01039435 -0.02059011 6.50520706 0 0 Z " fill="#424242" transform="translate(1625,509)"/>
<path d="M0 0 C1.21386936 3.64160808 0.6674695 4.33165469 -0.9375 7.6875 C-1.31777344 8.49574219 -1.69804688 9.30398438 -2.08984375 10.13671875 C-2.39019531 10.75160156 -2.69054687 11.36648438 -3 12 C-7.0279579 11.10696545 -10.67201987 9.53201019 -14.46484375 7.9375 C-22.35487914 5.01976734 -32.55291011 4.48197059 -40.5625 7.1875 C-45.26504254 9.66702243 -48.25361177 11.80748458 -50 16.9375 C-50 21.01779602 -49.45873795 22.69826618 -47 26 C-40.46308998 30.13533716 -33.38525211 32.24078502 -25.9375 34.0625 C-15.46463367 36.65709631 -5.18579458 39.41415624 2 48 C5.49779492 54.63172527 5.91127292 61.3245621 3.875 68.5 C1.36600393 75.29857001 -2.42972699 79.41297959 -8.8125 82.8125 C-23.52661982 89.42950063 -40.06181305 88.51770869 -55 83 C-65.37575758 78.24848485 -65.37575758 78.24848485 -67 75 C-66.00390625 72.3984375 -66.00390625 72.3984375 -64.5625 69.375 C-64.08941406 68.37210938 -63.61632812 67.36921875 -63.12890625 66.3359375 C-62.75636719 65.56507813 -62.38382813 64.79421875 -62 64 C-60.9378125 64.55429687 -59.875625 65.10859375 -58.78125 65.6796875 C-57.35438929 66.41189234 -55.92729327 67.14363873 -54.5 67.875 C-53.45585938 68.42220703 -53.45585938 68.42220703 -52.390625 68.98046875 C-42.01345278 74.26513979 -30.23445731 76.18600114 -18.875 72.75 C-15.48067684 71.38091427 -13.04097593 70.14650457 -11 67 C-9.83789767 63.1317433 -9.62818092 60.09066931 -10.9375 56.25 C-17.2548734 49.35831993 -27.95692536 47.94632315 -36.625 45.73242188 C-46.54969208 43.094289 -56.28389098 40.11487654 -62 31 C-65.19666533 24.52950845 -65.1662946 16.43471301 -63.34765625 9.51953125 C-60.20396981 2.54405532 -54.74518713 -1.46387009 -47.8125 -4.3125 C-32.66725895 -9.96513328 -13.83895809 -8.35559734 0 0 Z " fill="#424242" transform="translate(926,515)"/>
<path d="M0 0 C2.30177398 1.93964144 4.12748438 4.03645109 5.8125 6.52734375 C3.1725 9.16734375 0.5325 11.80734375 -2.1875 14.52734375 C-7.1875 12.52734375 -7.1875 12.52734375 -10.25 10.08984375 C-17.53901625 4.77296393 -26.56592657 3.87058554 -35.30859375 4.96484375 C-44.29132523 6.71995004 -51.16338686 10.56456209 -57.1875 17.52734375 C-63.30331124 27.24841842 -64.8582198 37.22695238 -62.57421875 48.57421875 C-59.69136273 57.56568159 -54.34853185 64.18536565 -45.9375 68.52734375 C-37.40241216 72.44152416 -27.26655163 72.95405995 -18.125 70.80859375 C-14.14028632 69.3021776 -10.99968192 67.53912872 -7.8125 64.71484375 C-5.1875 62.52734375 -5.1875 62.52734375 -3.2578125 62.66796875 C-0.70916045 63.72589979 0.67189482 65.09016519 2.5625 67.08984375 C3.17609375 67.73050781 3.7896875 68.37117187 4.421875 69.03125 C4.88078125 69.52496094 5.3396875 70.01867187 5.8125 70.52734375 C-0.52598733 79.0446861 -8.70505649 83.03912294 -19.015625 85.08984375 C-34.19768434 87.1839209 -49.05998434 84.88087214 -61.59765625 75.77734375 C-70.43003612 68.46372035 -75.7463493 58.69171996 -78.1875 47.52734375 C-79.14018884 32.05005451 -77.69179446 18.73562027 -67.1875 6.52734375 C-50.47836616 -11.58925493 -19.90891392 -14.38272642 0 0 Z " fill="#424242" transform="translate(1603.1875,516.47265625)"/>
<path d="M0 0 C25.41 0 50.82 0 77 0 C77 3.96 77 7.92 77 12 C66.77 12 56.54 12 46 12 C46 38.4 46 64.8 46 92 C41.38 92 36.76 92 32 92 C32 65.6 32 39.2 32 12 C21.44 12 10.88 12 0 12 C0 8.04 0 4.08 0 0 Z " fill="#424242" transform="translate(934,509)"/>
<path d="M0 0 C25.08 0 50.16 0 76 0 C76 3.96 76 7.92 76 12 C65.77 12 55.54 12 45 12 C45 38.4 45 64.8 45 92 C40.38 92 35.76 92 31 92 C31 65.6 31 39.2 31 12 C20.77 12 10.54 12 0 12 C0 8.04 0 4.08 0 0 Z " fill="#424242" transform="translate(2034,509)"/>
<path d="M0 0 C7.26 0 14.52 0 22 0 C22 30.36 22 60.72 22 92 C14.74 92 7.48 92 0 92 C0 61.64 0 31.28 0 0 Z " fill="#424242" transform="translate(760,367)"/>
<path d="M0 0 C4.62 0 9.24 0 14 0 C14 26.4 14 52.8 14 80 C30.5 80 47 80 64 80 C64 83.96 64 87.92 64 92 C42.88 92 21.76 92 0 92 C0 61.64 0 31.28 0 0 Z " fill="#424242" transform="translate(2214,509)"/>
<path d="M0 0 C4.62 0 9.24 0 14 0 C14 30.36 14 60.72 14 92 C9.38 92 4.76 92 0 92 C0 61.64 0 31.28 0 0 Z " fill="#424242" transform="translate(1024,509)"/>
<path d="M0 0 C-3.51135492 3.60835368 -7.17274661 6.9251274 -11.0625 10.125 C-11.57876953 10.55425781 -12.09503906 10.98351562 -12.62695312 11.42578125 C-14.07700579 12.6264618 -15.53819008 13.81366182 -17 15 C-17.63292969 15.59167969 -18.26585937 16.18335938 -18.91796875 16.79296875 C-22.02862828 18.59633422 -24.69804912 18.2861653 -28.25 18.1875 C-29.51328125 18.16042969 -30.7765625 18.13335937 -32.078125 18.10546875 C-33.04234375 18.07066406 -34.0065625 18.03585937 -35 18 C-33.69113837 16.40814125 -32.36702061 14.82779334 -30.99609375 13.2890625 C-29.52968101 11.60742284 -28.13528178 9.86229313 -26.78515625 8.0859375 C-18.85950463 -1.36622638 -11.8713684 -1.29292131 0 0 Z " fill="#424242" transform="translate(1131,484)"/>
</svg>
